
<svg version="1.1" id="Layer_1" xmlns="http://www.w3.org/2000/svg" xmlns:xlink="http://www.w3.org/1999/xlink" x="0px" y="0px" width="512px" height="512px" viewBox="0 0 512 512" enable-background="new 0 0 512 512" xml:space="preserve">
<g>
	<path fill="#49A0AE" d="M504.1,256c0,137-111.1,248.1-248.1,248.1C119,504.1,7.9,393,7.9,256C7.9,119,119,7.9,256,7.9
		C393,7.9,504.1,119,504.1,256"></path>
	<rect x="221.5" y="347.9" fill="#733F2B" width="29.8" height="32.3"></rect>
	<rect x="265.4" y="347.9" fill="#733F2B" width="29.8" height="32.3"></rect>
	<path fill="#F6C899" d="M236.4,368.9c-11.6,0-21,9.4-21,21h42C257.4,378.3,248,368.9,236.4,368.9"></path>
	<path fill="#F6C899" d="M280.3,368.9c-11.6,0-21,9.4-21,21h42C301.3,378.3,291.9,368.9,280.3,368.9"></path>
	<path fill="#733F2B" d="M303.8,301c-6.4-19.6-24.7-33.7-46.4-33.7s-40,14.1-46.4,33.7c-1.5,4.8-2.4,9.8-2.4,15.1
		c0,27,21.9,48.8,48.8,48.8c27,0,48.8-21.9,48.8-48.8C306.2,310.8,305.3,305.7,303.8,301"></path>
	<path fill="#733F2B" d="M203.5,229.8c0,14.3-11.6,25.9-25.9,25.9c-14.3,0-25.9-11.6-25.9-25.9c0-14.3,11.6-25.9,25.9-25.9
		C191.9,203.9,203.5,215.5,203.5,229.8"></path>
	<path fill="#56271A" d="M194.5,229.8c0,9.3-7.5,16.9-16.9,16.9c-9.3,0-16.9-7.5-16.9-16.9c0-9.3,7.5-16.9,16.9-16.9
		C186.9,212.9,194.5,220.5,194.5,229.8"></path>
	<path fill="#733F2B" d="M360.4,229.8c0,14.3-11.6,25.9-25.9,25.9c-14.3,0-25.9-11.6-25.9-25.9c0-14.3,11.6-25.9,25.9-25.9
		C348.8,203.9,360.4,215.5,360.4,229.8"></path>
	<path fill="#56271A" d="M351.4,229.8c0,9.3-7.5,16.9-16.9,16.9c-9.3,0-16.9-7.5-16.9-16.9c0-9.3,7.6-16.9,16.9-16.9
		C343.9,212.9,351.4,220.5,351.4,229.8"></path>
	<path fill="#733F2B" d="M268.3,122.2c0.5,3.1-0.5,10.9-8,19.4c-3.3,3.8-3,3-4.3,4.9c-1.3,1.9-2.8,3.6-4.7,5c-1.9,1.4-2.6,2.3-5.7,3
		c-0.5-3.1-0.9-3.7-1.2-7.5c-0.1-2.4,0.4-5.8,1.7-7.6c1.3-1.9,2.7-3.9,5.8-6C253.8,131.9,265.5,127.5,268.3,122.2"></path>
	<path fill="#733F2B" d="M277.8,130.6c0.5,3.1-1.7,17.1-7.4,19.3c-0.6,2.3-4.4,1.3-5.6,3.2c-1.3,1.9-2.8,3.6-4.7,5
		c-1.9,1.4-4.2,2.7-7.2,3.4c-0.5-3.1-0.2-5.6,0.4-8c0.6-2.3,1.4-8.6,7.6-11.3C269.9,138.2,273.7,135.8,277.8,130.6"></path>
	<path fill="#733F2B" d="M257.4,146c-44.4,0-80.4,36-80.4,80.4s36,80.4,80.4,80.4c44.4,0,80.4-36,80.4-80.4S301.8,146,257.4,146"></path>
	<path fill="#F6C899" d="M328.3,220.5c0-19.9-16.1-36-36-36c-16.8,0-30.9,11.5-34.9,27.1c-4-15.6-18.1-27.1-34.9-27.1
		c-19.9,0-36,16.1-36,36c0,18.9,14.6,34.4,33.1,35.9c-1.5,4.2-2.4,8.8-2.4,13.6c0,16.4,9.9,30.5,24,36.8c5.1,2.8,11.1,4.4,17.3,4.4
		c11.9,0,22.5-5.8,29.1-14.8c6.2-7.1,10-16.3,10-26.5c0-4.8-0.9-9.3-2.4-13.6C313.7,254.8,328.3,239.4,328.3,220.5"></path>
	<path fill="#411713" d="M253.3,255.9c0,2.9-2.3,5.2-5.2,5.2c-2.9,0-5.2-2.3-5.2-5.2c0-2.9,2.3-5.2,5.2-5.2
		C251,250.7,253.3,253,253.3,255.9"></path>
	<path fill="#411713" d="M271.9,255.9c0,2.9-2.3,5.2-5.2,5.2c-2.9,0-5.2-2.3-5.2-5.2c0-2.9,2.4-5.2,5.2-5.2
		C269.6,250.7,271.9,253,271.9,255.9"></path>
	<path fill="#411713" d="M234.4,224c0,7.1-5.8,12.9-12.9,12.9c-7.1,0-12.9-5.8-12.9-12.9s5.8-12.9,12.9-12.9
		C228.6,211,234.4,216.8,234.4,224"></path>
	<path fill="#411713" d="M306.2,224c0,7.1-5.8,12.9-12.9,12.9c-7.1,0-12.9-5.8-12.9-12.9s5.8-12.9,12.9-12.9
		C300.4,211,306.2,216.8,306.2,224"></path>
	<path fill="#FFFFFF" d="M230.1,219.7c0,2.4-1.9,4.3-4.3,4.3c-2.4,0-4.3-1.9-4.3-4.3c0-2.4,1.9-4.3,4.3-4.3
		C228.2,215.3,230.1,217.3,230.1,219.7"></path>
	<path fill="#FFFFFF" d="M301.9,219.7c0,2.4-1.9,4.3-4.3,4.3c-2.4,0-4.3-1.9-4.3-4.3c0-2.4,1.9-4.3,4.3-4.3
		C299.9,215.3,301.9,217.3,301.9,219.7"></path>
	<path fill="#411713" d="M257.4,299.7c-13.1,0-18.4-7.4-18.6-7.7c-0.4-0.5-0.2-1.3,0.3-1.7c0.5-0.4,1.3-0.2,1.7,0.3
		c0.2,0.3,4.8,6.6,16.6,6.6c10.8,0,16.6-6.7,16.7-6.8c0.4-0.5,1.2-0.6,1.7-0.1c0.5,0.4,0.6,1.2,0.1,1.7
		C275.6,292.4,269.3,299.7,257.4,299.7"></path>
	<path fill="#F6C899" d="M281.1,344.9c-6.7,0-12.2-5.5-12.2-12.2c0-6.7,5.5-12.2,12.2-12.2"></path>
	<path fill="#F6C899" d="M233.7,344.9c6.7,0,12.2-5.5,12.2-12.2c0-6.7-5.5-12.2-12.2-12.2"></path>
	<path fill="#733F2B" d="M222.3,319.4c-3.8,0-7,3.1-7,7c0,11.8-9.6,21.4-21.4,21.4c-11.8,0-21.4-9.6-21.4-21.4
		c0-8,4.4-14.9,10.9-18.6c-5.8-4.3-4.8-11-4.2-13.5c-12.1,5.6-20.6,17.8-20.6,32.1c0,19.5,15.8,35.3,35.3,35.3
		c19.5,0,35.3-15.9,35.3-35.3C229.2,322.5,226.1,319.4,222.3,319.4"></path>
	<path fill="#F6C899" d="M183.4,307.8c3.1-1.8,6.7-2.8,10.5-2.8c3.8,0,7-3.1,7-7s-3.1-7-7-7c-5.2,0-10.2,1.2-14.7,3.3
		C178.7,296.7,177.7,303.5,183.4,307.8"></path>
</g>
</svg>