<svg xmlns="http://www.w3.org/2000/svg" xmlns:xlink="http://www.w3.org/1999/xlink" viewBox="0 0 40 40" version="1.1">
<g id="surface1">
<path style=" fill:#DFF0FE;" d="M 17.285156 31.714844 C 16.546875 31.714844 15.800781 31.664063 15.070313 31.566406 L 15.070313 11.148438 C 15.804688 11.050781 16.546875 11 17.285156 11 C 19.972656 11 22.550781 11.640625 24.746094 12.855469 C 24.730469 12.882813 24.746094 13.191406 24.757813 13.375 C 24.78125 13.84375 24.8125 14.378906 25.203125 14.65625 C 25.527344 14.882813 25.925781 14.910156 26.195313 14.910156 C 26.363281 14.910156 26.539063 14.898438 26.710938 14.886719 C 26.859375 14.875 27.011719 14.863281 27.152344 14.863281 C 27.441406 14.863281 27.515625 14.914063 27.53125 14.929688 C 29.378906 16.777344 30.355469 19 30.355469 21.355469 C 30.355469 27.066406 24.492188 31.714844 17.285156 31.714844 Z "></path>
<path style=" fill:#4788C7;" d="M 17.285156 11.5 C 19.78125 11.5 22.179688 12.070313 24.242188 13.152344 C 24.25 13.234375 24.253906 13.328125 24.257813 13.398438 C 24.285156 13.925781 24.324219 14.648438 24.917969 15.0625 C 25.355469 15.371094 25.855469 15.410156 26.195313 15.410156 C 26.375 15.410156 26.5625 15.398438 26.746094 15.382813 C 26.886719 15.375 27.023438 15.363281 27.152344 15.363281 C 27.199219 15.363281 27.238281 15.367188 27.261719 15.367188 C 28.960938 17.101563 29.855469 19.171875 29.855469 21.355469 C 29.855469 26.792969 24.21875 31.214844 17.285156 31.214844 C 16.714844 31.214844 16.140625 31.183594 15.570313 31.121094 L 15.570313 11.59375 C 16.140625 11.53125 16.714844 11.5 17.285156 11.5 M 17.285156 10.5 C 16.355469 10.5 15.449219 10.574219 14.570313 10.71875 L 14.570313 31.996094 C 15.449219 32.136719 16.355469 32.214844 17.285156 32.214844 C 24.78125 32.214844 30.855469 27.351563 30.855469 21.355469 C 30.855469 18.792969 29.746094 16.433594 27.886719 14.578125 C 27.714844 14.40625 27.449219 14.363281 27.152344 14.363281 C 26.847656 14.363281 26.503906 14.410156 26.195313 14.410156 C 25.921875 14.410156 25.675781 14.375 25.492188 14.246094 C 25.09375 13.964844 25.429688 12.660156 24.988281 12.417969 C 22.800781 11.207031 20.148438 10.5 17.285156 10.5 Z "></path>
<path style=" fill:#DFF0FE;" d="M 32 38.5 C 30.714844 38.5 29.5 37.386719 29.5 36.210938 C 29.5 35.644531 29.636719 34.871094 30.289063 34.40625 L 30.59375 34.191406 L 30.476563 33.839844 C 30.335938 33.421875 29.632813 31.21875 29.5 28.96875 L 29.480469 28.667969 L 29.203125 28.542969 C 28.421875 28.191406 27.789063 27.589844 27.089844 26.527344 C 26.269531 25.28125 25.992188 23.769531 26.332031 22.375 L 26.414063 22.035156 L 26.121094 21.839844 C 24.804688 20.976563 24.050781 19.65625 24.050781 18.222656 C 24.050781 16.742188 25.097656 16.007813 26.308594 15.15625 C 26.996094 14.675781 27.703125 14.175781 28.242188 13.507813 C 30.34375 13.632813 32.5 15.386719 32.5 20 L 32.5 20.207031 L 32.644531 20.351563 C 34.359375 22.066406 34.5 24.472656 34.5 27 L 34.5 27.175781 L 34.609375 27.3125 C 36.445313 29.605469 36.5 32.660156 36.5 33 L 36.5 33.152344 L 36.585938 33.28125 C 37.046875 33.964844 37.5 34.738281 37.5 36 C 37.5 37.242188 36.726563 38.5 35 38.5 Z "></path>
<path style=" fill:#4788C7;" d="M 28.457031 14.027344 C 30.65625 14.296875 32 16.53125 32 20 L 32 20.414063 L 32.292969 20.707031 C 33.867188 22.285156 34 24.582031 34 27 L 34 27.351563 L 34.21875 27.625 C 35.980469 29.820313 36 32.871094 36 33 L 36 33.304688 L 36.171875 33.558594 C 36.609375 34.207031 37 34.878906 37 36 C 37 36.335938 36.902344 38 35 38 L 32 38 C 31.007813 38 30 37.097656 30 36.210938 C 30 35.761719 30.101563 35.15625 30.578125 34.816406 L 31.183594 34.386719 L 30.949219 33.683594 C 30.8125 33.277344 30.128906 31.128906 30 28.941406 L 29.964844 28.335938 L 29.410156 28.089844 C 28.71875 27.777344 28.148438 27.230469 27.507813 26.253906 C 26.761719 25.121094 26.507813 23.753906 26.816406 22.496094 L 26.984375 21.808594 L 26.394531 21.421875 C 25.222656 20.652344 24.550781 19.484375 24.550781 18.222656 C 24.550781 17.058594 25.289063 16.484375 26.59375 15.566406 C 27.242188 15.109375 27.90625 14.644531 28.457031 14.027344 M 28 13 C 26.640625 14.914063 23.550781 15.457031 23.550781 18.222656 C 23.550781 19.886719 24.460938 21.347656 25.84375 22.257813 C 25.488281 23.714844 25.726563 25.371094 26.671875 26.800781 C 27.328125 27.800781 28.019531 28.558594 29 29 C 29.125 31.125 29.75 33.25 30 34 C 29.308594 34.492188 29 35.296875 29 36.210938 C 29 37.710938 30.5 39 32 39 L 35 39 C 37.042969 39 38 37.5 38 36 C 38 34.582031 37.480469 33.707031 37 33 C 37 32.375 36.855469 29.3125 35 27 C 35 24.75 34.9375 21.9375 33 20 C 33 15.042969 30.5625 13 28 13 Z "></path>
<path style=" fill:#DFF0FE;" d="M 4 38.5 C 2.375 38.5 1.5 37.210938 1.5 36 C 1.5 35.03125 1.945313 34.140625 2.4375 33.238281 L 2.5 33.128906 L 2.5 33 C 2.5 30.90625 2.839844 28.050781 4.460938 26.34375 L 4.632813 26.160156 L 4.589844 25.910156 C 4.527344 25.566406 4.5 25.300781 4.5 25.046875 C 4.5 22.367188 6.410156 20.5 9.144531 20.5 C 10.925781 20.5 12.578125 21.488281 13.449219 23.078125 L 13.5625 23.289063 L 13.800781 23.332031 C 16.316406 23.777344 18.140625 25.515625 18.140625 27.464844 C 18.140625 29.652344 15.382813 31.5 12.117188 31.5 C 11.472656 31.5 10.835938 31.40625 10.160156 31.214844 L 9.523438 31.03125 L 9.523438 31.695313 C 9.523438 32.113281 9.152344 33.738281 8.566406 34.75 L 8.132813 35.5 L 9 35.5 C 9.695313 35.5 10.5 36.15625 10.5 37 C 10.5 37.882813 9.710938 38.5 9 38.5 Z "></path>
<path style=" fill:#4788C7;" d="M 9.144531 21 C 10.746094 21 12.226563 21.890625 13.011719 23.320313 L 13.242188 23.742188 L 13.714844 23.824219 C 15.992188 24.226563 17.644531 25.757813 17.644531 27.464844 C 17.644531 29.382813 15.113281 31 12.121094 31 C 11.523438 31 10.929688 30.914063 10.300781 30.734375 L 9.023438 30.367188 L 9.023438 31.695313 C 9.023438 32.019531 8.675781 33.566406 8.136719 34.496094 L 7.265625 36 L 9 36 C 9.449219 36 10 36.460938 10 37 C 10 37.570313 9.472656 38 9 38 L 4 38 C 2.699219 38 2 36.96875 2 36 C 2 35.148438 2.398438 34.355469 2.878906 33.480469 L 3 33.257813 L 3 33 C 3 30.996094 3.316406 28.277344 4.820313 26.6875 L 5.167969 26.320313 L 5.082031 25.824219 C 5.023438 25.511719 5 25.269531 5 25.046875 C 5 22.625 6.664063 21 9.144531 21 M 9.144531 20 C 6.144531 20 4 22.046875 4 25.046875 C 4 25.371094 4.039063 25.6875 4.097656 26 C 2.4375 27.75 2 30.5625 2 33 C 1.46875 33.96875 1 34.914063 1 36 C 1 37.5 2.125 39 4 39 L 9 39 C 10.03125 39 11 38.125 11 37 C 11 35.875 9.96875 35 9 35 C 9.609375 33.949219 10.023438 32.230469 10.023438 31.695313 C 10.679688 31.882813 11.378906 32 12.121094 32 C 15.492188 32 18.644531 30.089844 18.644531 27.464844 C 18.644531 25.203125 16.605469 23.320313 13.886719 22.839844 C 12.964844 21.15625 11.199219 20 9.144531 20 Z "></path>
<path style=" fill:#DFF0FE;" d="M 16 38.5 C 14.820313 38.5 13.5 37.554688 13.5 36.285156 C 13.5 35.410156 14.324219 34.683594 15.121094 34.484375 L 15.710938 34.339844 L 15.453125 33.789063 C 15.21875 33.289063 14.761719 32.222656 14.476563 31.328125 L 14.390625 31.066406 L 14.125 31 C 12.746094 30.644531 11.65625 29.429688 11.351563 27.902344 C 11.234375 27.324219 11.253906 26.777344 11.417969 26.121094 L 11.480469 25.863281 L 11.304688 25.664063 C 11.089844 25.429688 10.84375 25.144531 10.632813 24.828125 C 9.496094 23.101563 9.191406 20.980469 9.824219 19.152344 L 9.914063 18.894531 L 9.742188 18.679688 C 9.023438 17.777344 8.5 16.230469 8.5 15 C 8.5 11.863281 11.101563 9.5 14.546875 9.5 C 14.617188 9.5 14.683594 9.511719 14.75 9.519531 C 14.824219 9.527344 14.894531 9.535156 14.96875 9.539063 L 15.292969 9.558594 L 15.445313 9.273438 C 18.011719 4.351563 20.234375 1.5 24 1.5 C 26.210938 1.5 29.5 5.527344 29.5 7.644531 C 29.5 8.023438 29.5 8.5 27.285156 8.5 C 27.054688 8.5 26.851563 8.605469 26.730469 8.792969 C 26.445313 9.242188 26.691406 9.882813 27.421875 11.476563 C 27.671875 12.023438 28.050781 12.851563 28.058594 13.070313 C 28.019531 13.15625 27.96875 13.367188 27.917969 13.589844 C 27.863281 13.832031 27.757813 14.285156 27.679688 14.394531 L 27.144531 14.703125 L 27.628906 15.105469 C 29.265625 16.9375 30.5 19.902344 30.5 22 C 30.5 25.839844 27.921875 28.707031 22.832031 30.527344 L 22.535156 30.636719 L 22.503906 30.949219 C 22.453125 31.453125 22.390625 31.851563 22.296875 32.203125 L 22.238281 32.4375 L 22.386719 32.632813 C 23.082031 33.542969 23.5 34.800781 23.5 36 C 23.5 37.210938 22.625 38.5 21 38.5 Z "></path>
<path style=" fill:#4788C7;" d="M 24 2 C 25.910156 2 29 5.796875 29 7.644531 C 29 7.699219 29 7.746094 28.996094 7.777344 C 28.882813 7.839844 28.472656 8 27.285156 8 C 26.886719 8 26.523438 8.195313 26.3125 8.523438 C 25.851563 9.242188 26.269531 10.160156 26.96875 11.683594 C 27.164063 12.117188 27.453125 12.746094 27.539063 13.035156 C 27.503906 13.167969 27.46875 13.320313 27.429688 13.476563 C 27.394531 13.632813 27.339844 13.871094 27.292969 14.023438 L 26.433594 14.519531 L 27.253906 15.4375 C 28.792969 17.160156 30 20.042969 30 22 C 30 25.605469 27.53125 28.316406 22.664063 30.058594 L 22.066406 30.273438 L 22.003906 30.902344 C 21.960938 31.371094 21.898438 31.757813 21.8125 32.078125 L 21.691406 32.550781 L 21.988281 32.9375 C 22.621094 33.761719 23 34.90625 23 36 C 23 36.96875 22.300781 38 21 38 L 16 38 C 14.972656 38 14 37.167969 14 36.285156 C 14 35.664063 14.644531 35.121094 15.242188 34.96875 L 16.421875 34.675781 L 15.90625 33.574219 C 15.675781 33.085938 15.230469 32.046875 14.953125 31.175781 L 14.78125 30.652344 L 14.25 30.515625 C 13.054688 30.207031 12.109375 29.144531 11.839844 27.804688 C 11.738281 27.296875 11.757813 26.832031 11.902344 26.242188 L 12.03125 25.722656 L 11.675781 25.328125 C 11.472656 25.105469 11.242188 24.839844 11.050781 24.550781 C 9.996094 22.953125 9.714844 20.996094 10.296875 19.316406 L 10.476563 18.796875 L 10.132813 18.367188 C 9.488281 17.558594 9 16.109375 9 15 C 9 12.148438 11.386719 10 14.546875 10 C 14.597656 10 14.644531 10.007813 14.6875 10.015625 C 14.773438 10.023438 14.855469 10.035156 14.941406 10.039063 L 15.585938 10.078125 L 15.886719 9.503906 C 18.367188 4.75 20.488281 2 24 2 M 24 1 C 19.875 1 17.5 4.25 15 9.039063 C 14.847656 9.03125 14.703125 9 14.546875 9 C 10.800781 9 8 11.628906 8 15 C 8 16.328125 8.550781 17.988281 9.351563 18.988281 C 8.695313 20.890625 8.941406 23.167969 10.21875 25.101563 C 10.433594 25.429688 10.679688 25.71875 10.933594 26 C 10.773438 26.652344 10.714844 27.28125 10.859375 28 C 11.214844 29.769531 12.488281 31.09375 14 31.484375 C 14.289063 32.382813 14.75 33.46875 15 34 C 14 34.25 13 35.152344 13 36.285156 C 13 37.785156 14.5 39 16 39 L 21 39 C 22.875 39 24 37.5 24 36 C 24 34.859375 23.636719 33.441406 22.78125 32.328125 C 22.890625 31.90625 22.953125 31.460938 23 31 C 27.734375 29.304688 31 26.417969 31 22 C 31 19.648438 29.589844 16.550781 28 14.773438 C 28.265625 14.621094 28.390625 13.632813 28.546875 13.152344 C 28.730469 12.578125 26.5 9 27.285156 9 C 29.921875 9 30 8.265625 30 7.644531 C 30 5.230469 26.503906 1 24 1 Z "></path>
<path style="fill:#DFF0FE;stroke-width:1;stroke-linecap:round;stroke-linejoin:miter;stroke:#4788C7;stroke-opacity:1;stroke-miterlimit:10;" d="M 17.5 16.5 C 20.332031 17.644531 21.207031 21.6875 20.613281 23.910156 L 20.480469 24.265625 C 20.953125 24.945313 21.5 25.902344 21.894531 27.125 C 22.589844 29.273438 22.457031 31.148438 22.292969 32.214844 "></path>
<path style=" fill:#B6DCFE;" d="M 27 14.5 C 26.375 14.5 25.941406 14.324219 25.71875 13.976563 C 25.378906 13.460938 25.5 12.597656 25.757813 12.015625 L 25.957031 11.566406 L 25.511719 11.359375 C 25.28125 11.257813 25.050781 11.089844 24.816406 10.863281 C 24.03125 10.074219 24.421875 9 24.707031 8.703125 C 24.800781 8.617188 24.941406 8.550781 25.113281 8.515625 L 25.199219 8.53125 L 25.273438 8.507813 L 25.601563 8.5 L 26 8.503906 L 28 8.5 C 28.648438 8.5 29.105469 8.636719 29.289063 8.886719 C 29.484375 9.152344 29.40625 9.601563 29.304688 9.933594 L 29.25 10.101563 L 29.316406 10.261719 C 29.6875 11.210938 29.417969 12.453125 28.59375 13.597656 C 28.15625 14.203125 27.636719 14.5 27 14.5 Z "></path>
<path style=" fill:#4788C7;" d="M 25.601563 9 L 25.820313 9.003906 L 26.003906 9.003906 L 28.003906 9 C 28.613281 9 28.851563 9.136719 28.886719 9.183594 C 28.90625 9.207031 28.949219 9.382813 28.824219 9.785156 L 28.722656 10.121094 L 28.851563 10.445313 C 29.214844 11.371094 28.746094 12.53125 28.1875 13.304688 C 27.847656 13.777344 27.46875 14 27 14 C 26.554688 14 26.265625 13.902344 26.136719 13.703125 C 25.941406 13.40625 25.972656 12.765625 26.214844 12.21875 L 26.609375 11.320313 L 25.71875 10.90625 C 25.542969 10.824219 25.355469 10.691406 25.175781 10.519531 C 24.597656 9.941406 24.945313 9.175781 25.035156 9.082031 C 25.0625 9.058594 25.09375 9.039063 25.128906 9.027344 L 25.148438 9.03125 L 25.3125 9.003906 L 25.398438 9.003906 C 25.46875 9 25.535156 9 25.601563 9 M 28 8 L 26 8.003906 C 25.894531 8.003906 25.757813 8 25.601563 8 C 25.523438 8 25.441406 8 25.359375 8.003906 C 25.300781 8.003906 25.238281 8.003906 25.179688 8.015625 C 25.15625 8.011719 25.132813 8.007813 25.109375 8.007813 C 25.078125 8.007813 25.050781 8.011719 25.019531 8.023438 C 24.761719 8.074219 24.53125 8.183594 24.351563 8.355469 C 23.859375 8.855469 23.480469 10.234375 24.46875 11.222656 C 24.761719 11.503906 25.039063 11.695313 25.300781 11.8125 C 24.789063 12.976563 24.730469 15 27 15 C 28.152344 15 28.777344 14.199219 29 13.890625 C 29.769531 12.820313 30.28125 11.351563 29.78125 10.078125 C 30.257813 8.527344 29.351563 8 28 8 Z "></path>
<path style=" fill:#4788C7;" d="M 26.023438 13.238281 C 26.03125 13.421875 26.0625 13.59375 26.136719 13.703125 C 26.171875 13.761719 26.222656 13.804688 26.285156 13.84375 C 26.859375 13.554688 27.679688 13.300781 28.289063 13.152344 C 28.324219 13.101563 28.359375 13.054688 28.390625 13 C 27.578125 13 26.539063 13.023438 26.023438 13.238281 Z "></path>
<path style=" fill:#4788C7;" d="M 29 11.320313 L 28.988281 11.398438 C 28.988281 11.390625 29 11.40625 28.988281 11.398438 C 28.960938 11.640625 28.839844 12 28.839844 12 L 27.261719 12 C 27.261719 12 27.058594 11.695313 27.011719 11.476563 C 27 11.445313 27 11.421875 27 11.390625 C 27 11.171875 27.21875 11 27.5 11 C 27.660156 11 27.800781 11.054688 27.890625 11.140625 C 27.898438 11.148438 27.910156 11.164063 27.921875 11.171875 C 27.980469 11.21875 28.019531 11.242188 28.078125 11.242188 C 28.148438 11.242188 28.191406 11.203125 28.269531 11.140625 C 28.328125 11.054688 28.449219 11 28.589844 11 C 28.820313 11 29 11.140625 29 11.320313 Z "></path>
<path style=" fill:#4788C7;" d="M 27 9.5 C 27 9.777344 26.777344 10 26.5 10 C 26.222656 10 26 9.777344 26 9.5 C 26 9.222656 26.222656 9 26.5 9 C 26.777344 9 27 9.222656 27 9.5 Z "></path>
<path style=" fill:#4788C7;" d="M 29 9.5 C 29 9.777344 28.777344 10 28.5 10 C 28.222656 10 28 9.777344 28 9.5 C 28 9.222656 28.222656 9 28.5 9 C 28.777344 9 29 9.222656 29 9.5 Z "></path>
</g>
</svg>
